<svg xmlns="http://www.w3.org/2000/svg" viewBox="0 0 320 220" role="img" aria-label="DALA DAMI logo">
  <defs>
    <linearGradient id="gold" x1="0" x2="1" y1="0" y2="1">
      <stop offset="0" stop-color="#d7b074"/>
      <stop offset="1" stop-color="#b98f53"/>
    </linearGradient>
  </defs>
  <rect width="320" height="220" fill="none"/>
  <text x="46" y="130" font-size="128" font-family="Georgia, serif" fill="url(#gold)">D</text>
  <text x="102" y="128" font-size="128" font-family="Georgia, serif" fill="url(#gold)">D</text>
  <path d="M173 96c12 9 19 22 19 37 0 17-8 31-21 40" stroke="url(#gold)" stroke-width="3" fill="none"/>
  <ellipse cx="175" cy="102" rx="7" ry="2.5" fill="url(#gold)" transform="rotate(25 175 102)"/>
  <ellipse cx="182" cy="111" rx="7" ry="2.5" fill="url(#gold)" transform="rotate(35 182 111)"/>
  <ellipse cx="187" cy="120" rx="7" ry="2.5" fill="url(#gold)" transform="rotate(45 187 120)"/>
  <ellipse cx="190" cy="130" rx="7" ry="2.5" fill="url(#gold)" transform="rotate(55 190 130)"/>
  <ellipse cx="190" cy="141" rx="7" ry="2.5" fill="url(#gold)" transform="rotate(70 190 141)"/>
  <text x="58" y="188" font-size="42" letter-spacing="1" font-family="Georgia, serif" fill="url(#gold)">DALA DAMI</text>
</svg>
