<svg width="151" height="40" viewBox="0 0 151 40" fill="none" xmlns="http://www.w3.org/2000/svg">
<path d="M61.4388 36.4575C60.8484 36.1348 60.3855 35.69 60.0501 35.1212C59.7146 34.5525 59.5479 33.9129 59.5479 33.1985C59.5479 32.4841 59.7166 31.8445 60.0559 31.2758C60.3953 30.707 60.8582 30.2623 61.4486 29.9395C62.039 29.6168 62.7 29.4554 63.4317 29.4554C64.026 29.4554 64.5674 29.5597 65.0578 29.7663C65.5481 29.9749 65.962 30.276 66.3013 30.6696L65.4304 31.4903C64.9067 30.9215 64.2594 30.6381 63.4925 30.6381C62.9962 30.6381 62.549 30.7464 62.1567 30.9648C61.7624 31.1833 61.4565 31.4863 61.2348 31.874C61.0132 32.2617 60.9033 32.7026 60.9033 33.1946C60.9033 33.6866 61.0132 34.1274 61.2348 34.5151C61.4565 34.9028 61.7624 35.2059 62.1567 35.4243C62.551 35.6428 62.9962 35.751 63.4925 35.751C64.2594 35.751 64.9048 35.4637 65.4304 34.889L66.3013 35.7215C65.962 36.117 65.5462 36.4181 65.0538 36.6248C64.5595 36.8334 64.0162 36.9357 63.4219 36.9357C62.6902 36.9416 62.0292 36.7803 61.4388 36.4575Z" fill="black"/>
<path d="M74.4062 29.5616L71.2561 35.4341C70.9795 35.9537 70.65 36.3434 70.2675 36.6031C69.885 36.8629 69.4692 36.9928 69.02 36.9928C68.661 36.9928 68.304 36.916 67.9529 36.7645L68.2844 35.7038C68.5669 35.7943 68.8022 35.8395 68.9886 35.8395C69.424 35.8395 69.783 35.6152 70.0654 35.1645L70.1792 34.9874L67.288 29.5616H68.7277L70.8716 33.8342L73.0783 29.5616H74.4062Z" fill="black"/>
<path d="M82.4229 29.5616V36.8373H81.0969V30.7051H77.3367V36.8373H76.0107V29.5616H82.4229Z" fill="black"/>
<path d="M90.2551 35.7057V36.8373H84.8179V29.5616H90.11V30.6952H86.1635V32.5865H89.6647V33.6984H86.1635V35.7057H90.2551Z" fill="black"/>
<path d="M96.7497 29.8746C97.2165 30.0832 97.5735 30.3803 97.8226 30.768C98.0717 31.1557 98.1953 31.6162 98.1953 32.1496C98.1953 32.677 98.0717 33.1355 97.8226 33.5272C97.5735 33.9188 97.2165 34.2179 96.7497 34.4265C96.2828 34.6351 95.7356 34.7375 95.1079 34.7375H93.472V36.8373H92.1245V29.5616H95.1079C95.7356 29.5616 96.2828 29.666 96.7497 29.8746ZM96.3829 33.2201C96.6869 32.9702 96.8379 32.614 96.8379 32.1496C96.8379 31.6851 96.6869 31.3289 96.3829 31.079C96.0788 30.829 95.6336 30.7051 95.0471 30.7051H93.472V33.5941H95.0471C95.6336 33.5941 96.0788 33.4701 96.3829 33.2201Z" fill="black"/>
<path d="M106.583 36.8373L106.573 32.0157L104.192 36.0068H103.589L101.208 32.0787V36.8373H99.9332V29.5616H101.041L103.911 34.3754L106.749 29.5616H107.848L107.867 36.8373H106.583Z" fill="black"/>
<path d="M115.205 35.1547H111.579L110.865 36.8373H109.476L112.74 29.5616H114.066L117.339 36.8373H115.931L115.205 35.1547ZM114.76 34.0939L113.393 30.9137L112.036 34.0939H114.76Z" fill="black"/>
<path d="M123.569 29.8746C124.036 30.0832 124.393 30.3803 124.642 30.768C124.891 31.1557 125.015 31.6162 125.015 32.1496C125.015 32.677 124.891 33.1355 124.642 33.5272C124.393 33.9188 124.036 34.2179 123.569 34.4265C123.102 34.6351 122.555 34.7375 121.927 34.7375H120.292V36.8373H118.944V29.5616H121.927C122.557 29.5616 123.104 29.666 123.569 29.8746ZM123.202 33.2201C123.506 32.9702 123.658 32.614 123.658 32.1496C123.658 31.6851 123.506 31.3289 123.202 31.079C122.898 30.829 122.453 30.7051 121.867 30.7051H120.292V33.5941H121.867C122.453 33.5941 122.898 33.4701 123.202 33.2201Z" fill="black"/>
<path d="M129.42 33.7712H128.073V36.8373H126.747V29.5616H128.073V32.6081H129.462L131.545 29.5616H132.973L130.497 33.0863L133.067 36.8373H131.545L129.42 33.7712Z" fill="black"/>
<path d="M140.134 35.7057V36.8373H134.695V29.5616H139.989V30.6952H136.042V32.5865H139.544V33.6984H136.042V35.7057H140.134Z" fill="black"/>
<path d="M147.568 30.7051H145.165V36.8373H143.829V30.7051H141.436V29.5616H147.568V30.7051Z" fill="black"/>
<path d="M150.522 29.5616H149.177V36.8373H150.522V29.5616Z" fill="black"/>
<path d="M20.7907 9.61999L18.0799 9.21457C18.2819 9.62982 18.4291 10.0588 18.5193 10.5016C18.6115 10.9464 18.6566 11.403 18.6566 11.8753V12.1646C18.6566 12.9459 18.5252 13.6878 18.2604 14.3924C17.9956 15.0969 17.5228 15.7129 16.8402 16.2442C16.1576 16.7736 15.2318 17.1948 14.0647 17.5018C12.8976 17.8108 11.4147 17.9643 9.61801 17.9643C8.09 17.9643 6.78757 17.8639 5.71071 17.6612C5.45179 17.9111 5.32233 18.1827 5.32233 18.472C5.32233 18.8971 5.57536 19.1982 6.07947 19.3753C6.58357 19.5544 7.29363 19.6528 8.20573 19.6725H13.0506C14.4354 19.6725 15.5849 19.7906 16.5029 20.0267C17.4208 20.2629 18.1544 20.5915 18.7017 21.0107C19.249 21.4299 19.6354 21.9278 19.8629 22.5005C20.0885 23.0752 20.2022 23.699 20.2022 24.374C20.2022 25.1848 20.0179 25.9051 19.6471 26.5368C19.2764 27.1686 18.6997 27.7058 17.9171 28.1506C17.1325 28.5934 16.1263 28.9319 14.8964 29.1641C13.6665 29.3963 12.1856 29.5105 10.4556 29.5105C6.84249 29.5105 4.18074 29.0637 2.4762 28.1722C0.769698 27.2807 -0.054128 25.8933 0.00275543 24.0139H4.76134C4.76134 24.3898 4.86138 24.7342 5.06342 25.049C5.26545 25.3619 5.58714 25.6355 6.02847 25.8658C6.46981 26.098 7.04257 26.279 7.74478 26.4089C8.447 26.5388 9.29632 26.6038 10.2967 26.6038C11.9012 26.6038 13.1056 26.4404 13.9078 26.1118C14.7101 25.7831 15.1122 25.238 15.1122 24.4764C15.1122 24.2638 15.0631 24.0454 14.969 23.819C14.8729 23.5927 14.7218 23.3861 14.5139 23.1972C14.3079 23.0102 14.0412 22.8547 13.7136 22.7347C13.386 22.6146 12.9937 22.5536 12.5308 22.5536H6.08535C4.24939 22.5438 2.894 22.284 2.01917 21.7723C1.14435 21.2607 0.706932 20.4754 0.706932 19.4147C0.706932 19.0663 0.757929 18.7495 0.857965 18.4602C0.958002 18.1709 1.09334 17.9033 1.26203 17.6573C1.43072 17.4113 1.62295 17.1928 1.83871 17C2.05448 16.8071 2.28397 16.6339 2.52327 16.4784C1.82106 15.9864 1.32872 15.3862 1.04627 14.6777C0.76185 13.9692 0.620626 13.1565 0.620626 12.2394V11.8497C0.620626 10.9622 0.76185 10.1415 1.04627 9.38382C1.33068 8.62615 1.81714 7.97278 2.50955 7.42371C3.20196 6.87464 4.12386 6.44364 5.27722 6.12876C6.43058 5.81585 7.8762 5.65842 9.61605 5.65842C10.4418 5.65842 11.197 5.69974 11.8796 5.78043C12.5622 5.86309 13.1919 5.97526 13.7685 6.12089H20.7907V9.61999ZM9.79062 14.8981C10.6262 14.8981 11.3206 14.8116 11.8737 14.6384C12.4269 14.4652 12.8682 14.2389 13.1997 13.9594C13.5312 13.68 13.7666 13.3631 13.9058 13.0108C14.0451 12.6586 14.1157 12.3004 14.1157 11.9343V11.7907C14.1157 11.405 14.053 11.0271 13.9274 10.6551C13.8019 10.2832 13.5763 9.9506 13.2507 9.65737C12.9231 9.36414 12.4818 9.12405 11.9247 8.94103C11.3677 8.758 10.6517 8.66551 9.77689 8.66551C9.20021 8.66551 8.65295 8.71077 8.13316 8.80326C7.61336 8.89576 7.15437 9.0532 6.75619 9.27952C6.35604 9.50584 6.04024 9.81284 5.80486 10.1986C5.56948 10.5843 5.45179 11.0763 5.45179 11.6746V11.8045C5.45179 12.2099 5.51848 12.5976 5.65383 12.9695C5.78721 13.3415 6.01867 13.6681 6.34624 13.9535C6.67381 14.2389 7.11514 14.4671 7.6722 14.6403C8.22927 14.8115 8.93541 14.8981 9.79062 14.8981Z" fill="black"/>
<path d="M38.4089 23.1303V20.4794C38.4089 20.3751 38.2735 20.3377 38.2206 20.4282C38.0028 20.8002 37.7204 21.1505 37.3712 21.4752C36.9103 21.9042 36.3689 22.2761 35.7491 22.5891C35.1292 22.902 34.4466 23.146 33.7013 23.3192C32.9559 23.4924 32.1792 23.579 31.373 23.579C30.249 23.579 29.2624 23.4943 28.417 23.3271C27.5716 23.1578 26.8439 22.9295 26.2319 22.6402C25.6219 22.3509 25.1197 22.0164 24.7255 21.6346C24.3312 21.2548 24.0193 20.8513 23.7879 20.4262C23.5564 20.0031 23.3956 19.5702 23.3053 19.1313C23.2131 18.6924 23.168 18.2713 23.168 17.8659C23.168 17.1436 23.2995 16.4548 23.5643 15.8054C23.8291 15.154 24.2822 14.5833 24.9275 14.0913C25.5709 13.5993 26.4339 13.2096 27.5147 12.9203C28.5955 12.631 29.9587 12.4854 31.6025 12.4854C32.3518 12.4854 33.0697 12.5307 33.7582 12.6231C34.4447 12.7137 35.0841 12.8259 35.6745 12.9557C36.2669 13.0856 36.7945 13.2234 37.2594 13.369C37.6576 13.493 37.995 13.6052 38.2696 13.7075C38.3363 13.7331 38.4049 13.6819 38.4049 13.6111V13.0935C38.4049 12.5051 38.3343 11.956 38.1951 11.4443C38.0558 10.9326 37.8008 10.4918 37.4301 10.1199C37.0594 9.74791 36.5553 9.45665 35.9158 9.24411C35.2764 9.03157 34.4525 8.92529 33.4424 8.92529C32.5303 8.92529 31.779 9.00795 31.1925 9.17129C30.606 9.33463 30.1353 9.54521 29.7802 9.80105C29.4252 10.0569 29.1682 10.3422 29.0094 10.6552C28.8505 10.9681 28.7426 11.279 28.6857 11.588H23.8702C23.9271 11.1924 24.0213 10.7732 24.1507 10.3285C24.2802 9.88567 24.4862 9.44091 24.7706 8.99811C25.053 8.55531 25.4238 8.13023 25.8808 7.72482C26.3378 7.31941 26.9184 6.96321 27.6246 6.65423C28.3307 6.34526 29.1761 6.09926 30.1627 5.91623C31.1474 5.73321 32.3086 5.64072 33.6444 5.64072C35.0292 5.64072 36.2296 5.75289 37.2496 5.9733C38.2676 6.19568 39.1425 6.49876 39.8741 6.88448C40.6038 7.27021 41.2001 7.72875 41.661 8.25814C42.122 8.7895 42.4868 9.36219 42.7575 9.98014C43.0262 10.5981 43.2126 11.2456 43.3126 11.9265C43.4146 12.6054 43.4636 13.2883 43.4636 13.9732V23.1303H38.4089ZM32.8441 20.2806C33.8052 20.2806 34.6271 20.1507 35.3097 19.8909C35.9923 19.6312 36.5513 19.3222 36.9887 18.966C37.4262 18.6098 37.7498 18.2378 37.9832 17.8659C38.3324 17.3089 38.3951 16.7048 38.4069 16.504C38.4089 16.4607 38.3873 16.4253 38.3481 16.4076C38.1225 16.3072 37.8145 16.1911 37.4281 16.0593C37.0044 15.9136 36.5239 15.7778 35.9864 15.646C35.449 15.5161 34.8782 15.4059 34.278 15.3134C33.6777 15.2229 33.0893 15.1756 32.5126 15.1756C31.5613 15.1756 30.8022 15.2622 30.2353 15.4354C29.6684 15.6086 29.2389 15.8231 28.9446 16.0789C28.6504 16.3348 28.4582 16.6044 28.368 16.8898C28.2758 17.1751 28.2307 17.427 28.2307 17.6494C28.2307 17.8915 28.2836 18.163 28.3895 18.4661C28.4955 18.7692 28.7112 19.0565 29.0388 19.3261C29.3664 19.5957 29.8312 19.8221 30.4373 20.0071C31.0415 20.1881 31.8437 20.2806 32.8441 20.2806Z" fill="black"/>
<path d="M111.794 23.1303V20.4794C111.794 20.3751 111.659 20.3377 111.606 20.4282C111.388 20.8002 111.106 21.1505 110.755 21.4752C110.294 21.9042 109.752 22.2761 109.133 22.5891C108.513 22.902 107.83 23.146 107.085 23.3192C106.339 23.4924 105.563 23.579 104.757 23.579C103.633 23.579 102.646 23.4943 101.801 23.3271C100.955 23.1578 100.225 22.9295 99.6154 22.6402C99.0054 22.3509 98.5033 22.0164 98.109 21.6346C97.7147 21.2548 97.4029 20.8513 97.1714 20.4262C96.9399 20.0031 96.7791 19.5702 96.6889 19.1313C96.5967 18.6924 96.5516 18.2713 96.5516 17.8659C96.5516 17.1436 96.683 16.4548 96.9478 15.8054C97.2126 15.154 97.6657 14.5833 98.311 14.0913C98.9564 13.5993 99.8175 13.2096 100.898 12.9203C101.979 12.631 103.342 12.4854 104.986 12.4854C105.735 12.4854 106.453 12.5307 107.142 12.6231C107.828 12.7137 108.468 12.8259 109.058 12.9557C109.65 13.0856 110.178 13.2234 110.645 13.369C111.043 13.493 111.38 13.6052 111.655 13.7075C111.722 13.7331 111.79 13.6819 111.79 13.6111V13.0935C111.79 12.5051 111.72 11.956 111.581 11.4443C111.441 10.9326 111.186 10.4918 110.816 10.1199C110.445 9.74791 109.941 9.45665 109.301 9.24411C108.662 9.03157 107.838 8.92529 106.828 8.92529C105.914 8.92529 105.165 9.00795 104.578 9.17129C103.992 9.33463 103.521 9.54521 103.166 9.80105C102.811 10.0569 102.554 10.3422 102.395 10.6552C102.236 10.9681 102.128 11.279 102.071 11.588H97.2557C97.3126 11.1924 97.4068 10.7732 97.5362 10.3285C97.6657 9.88567 97.8717 9.44091 98.1561 8.99811C98.4385 8.55531 98.8093 8.13023 99.2663 7.72482C99.7233 7.31941 100.304 6.96321 101.01 6.65423C101.716 6.34526 102.562 6.09926 103.546 5.91623C104.531 5.73321 105.692 5.64072 107.028 5.64072C108.413 5.64072 109.613 5.75289 110.633 5.9733C111.653 6.19568 112.526 6.49876 113.258 6.88448C113.987 7.27021 114.584 7.72875 115.045 8.25814C115.506 8.7895 115.87 9.36219 116.141 9.98014C116.41 10.5981 116.596 11.2456 116.696 11.9265C116.798 12.6054 116.847 13.2883 116.847 13.9732V23.1303H111.794ZM106.228 20.2806C107.189 20.2806 108.011 20.1507 108.693 19.8909C109.376 19.6312 109.935 19.3222 110.372 18.966C110.81 18.6098 111.133 18.2378 111.367 17.8659C111.716 17.3089 111.779 16.7048 111.79 16.504C111.792 16.4607 111.771 16.4253 111.732 16.4076C111.506 16.3072 111.198 16.1911 110.812 16.0593C110.388 15.9136 109.907 15.7778 109.37 15.646C108.833 15.5161 108.262 15.4059 107.661 15.3134C107.061 15.2229 106.473 15.1756 105.896 15.1756C104.945 15.1756 104.186 15.2622 103.619 15.4354C103.052 15.6086 102.622 15.8231 102.328 16.0789C102.034 16.3348 101.844 16.6044 101.752 16.8898C101.659 17.1751 101.614 17.427 101.614 17.6494C101.614 17.8915 101.667 18.163 101.773 18.4661C101.879 18.7692 102.095 19.0565 102.422 19.3261C102.75 19.5957 103.215 19.8221 103.821 20.0071C104.427 20.1881 105.229 20.2806 106.228 20.2806Z" fill="black"/>
<path d="M53.3594 0.449158H48.2987V23.1303H53.3594V0.449158Z" fill="black"/>
<path d="M58.4495 23.1303V6.10518H63.5101V8.86824C63.5101 8.97058 63.6415 9.00797 63.6984 8.92138C63.9887 8.47661 64.332 8.0712 64.7282 7.70909C65.2127 7.26629 65.758 6.89041 66.3641 6.58144C66.9702 6.27246 67.6273 6.03827 68.3393 5.88083C69.0514 5.72142 69.7948 5.6427 70.5735 5.6427C71.7072 5.6427 72.6801 5.76078 73.4941 5.99694C74.3062 6.2331 74.9888 6.54995 75.542 6.94355C76.0951 7.33911 76.5345 7.80159 76.8601 8.33295C77.1406 8.78952 77.3661 9.2638 77.5329 9.7558C77.5623 9.84239 77.6761 9.85027 77.7172 9.76762C77.9919 9.21067 78.3371 8.69899 78.7568 8.23258C79.2335 7.70319 79.7886 7.24464 80.4221 6.85892C81.0557 6.47319 81.756 6.17406 82.5209 5.96151C83.284 5.74897 84.0941 5.6427 84.9493 5.6427C86.1223 5.6427 87.1246 5.76668 87.9543 6.01071C88.786 6.25671 89.4843 6.59127 90.0531 7.01636C90.62 7.44145 91.0711 7.93738 91.4085 8.50613C91.7439 9.07488 91.9989 9.68692 92.1735 10.3423C92.3461 10.9976 92.4599 11.6746 92.5128 12.3752C92.5658 13.0738 92.5932 13.7626 92.5932 14.4357V23.1283H87.5463V14.0736C87.5463 13.369 87.4914 12.7137 87.3796 12.1056C87.2697 11.4975 87.0697 10.9681 86.7813 10.5135C86.493 10.0608 86.0928 9.70464 85.5848 9.44289C85.0748 9.18312 84.4216 9.05323 83.6233 9.05323C82.6033 9.05323 81.7462 9.24413 81.0498 9.62395C80.3515 10.0057 79.7847 10.4879 79.3492 11.0704C78.9118 11.6549 78.0585 12.8967 78.0585 14.9828V23.1263H72.9979V14.5636C72.9979 14.1011 72.9881 13.6426 72.9685 13.19C72.9488 12.7373 72.8959 12.3063 72.8096 11.895C72.7233 11.4857 72.5958 11.1058 72.4271 10.7595C72.2584 10.4131 72.025 10.114 71.7268 9.86208C71.4287 9.61214 71.056 9.41337 70.6107 9.26971C70.1635 9.12604 69.6182 9.05323 68.9749 9.05323C68.0706 9.05323 67.2821 9.23232 66.6112 9.58853C65.9385 9.9467 65.3755 10.4052 64.9244 10.9701C64.4732 11.5329 63.5121 12.7275 63.5121 14.9552V23.1283H58.4495V23.1303Z" fill="black"/>
<path d="M121.684 23.1303V6.10518H126.745V9.48028C126.745 9.59049 126.892 9.62198 126.937 9.52162C127.114 9.12999 127.331 8.74819 127.588 8.37624C127.949 7.85473 128.412 7.39225 128.979 6.98684C129.546 6.58144 130.228 6.25671 131.027 6.01071C131.825 5.76471 132.761 5.6427 133.838 5.6427C134.136 5.6427 134.395 5.64861 134.616 5.65648C134.838 5.66632 135.036 5.68009 135.215 5.69977C135.393 5.71945 135.558 5.7411 135.713 5.76471C135.866 5.78833 136.021 5.81982 136.174 5.85918L136.131 9.59049C135.803 9.52358 135.415 9.46061 134.964 9.40157C134.512 9.34449 133.93 9.31497 133.22 9.31497C132.076 9.31497 131.097 9.49012 130.285 9.84239C129.473 10.1947 128.802 10.6493 128.275 11.2102C127.745 11.7691 127.359 12.3968 127.114 13.0896C126.868 13.7843 126.747 14.4731 126.747 15.1579V23.1283H121.684V23.1303Z" fill="black"/>
<path d="M143.822 2.01172V6.00281C143.822 6.05988 143.867 6.10514 143.924 6.10514H150.265V9.41727H143.924C143.867 9.41727 143.822 9.46253 143.822 9.51961V16.3603C143.822 16.8228 143.851 17.2814 143.908 17.734C143.965 18.1866 144.092 18.594 144.29 18.9561C144.487 19.3182 144.775 19.6095 145.155 19.8319C145.534 20.0543 146.042 20.1645 146.676 20.1645C147.156 20.1645 147.582 20.1487 147.953 20.1133C148.321 20.0799 148.651 20.0366 148.939 19.9834C149.228 19.9303 149.486 19.8732 149.718 19.8102C149.949 19.7473 150.165 19.6882 150.367 19.6292L150.583 22.5516C150.314 22.6678 150.01 22.7878 149.675 22.9138C149.337 23.0397 148.963 23.1519 148.551 23.2542C148.137 23.3566 147.688 23.4372 147.203 23.5002C146.717 23.5632 146.197 23.5947 145.638 23.5947C144.591 23.5947 143.694 23.5081 142.949 23.3349C142.203 23.1617 141.578 22.9138 141.068 22.589C140.558 22.2663 140.152 21.8766 139.85 21.4181C139.546 20.9595 139.314 20.4479 139.149 19.885C138.987 19.3202 138.881 18.7082 138.832 18.0469C138.785 17.3876 138.759 16.6949 138.759 15.9707V2.01172H143.822Z" fill="black"/>
<path d="M50.1818 28.7646C50.8016 30.2662 50.376 31.8681 50.376 31.8681C50.376 31.8681 48.9461 31.0377 48.3262 29.5361C47.7064 28.0345 48.132 26.4326 48.132 26.4326C48.132 26.4326 49.562 27.265 50.1818 28.7646Z" fill="#902067"/>
<path d="M53.3319 36.3965C53.9518 37.8981 53.5261 39.5 53.5261 39.5C53.5261 39.5 52.0962 38.6695 51.4764 37.1679C50.8565 35.6664 51.2822 34.0644 51.2822 34.0644C51.2822 34.0644 52.7141 34.8949 53.3319 36.3965Z" fill="#902067"/>
<path d="M46.6432 33.6157C48.1399 32.9938 49.7345 33.4209 49.7345 33.4209C49.7345 33.4209 48.9068 34.8556 47.4102 35.4775C45.9136 36.0993 44.3169 35.6723 44.3169 35.6723C44.3169 35.6723 45.1466 34.2376 46.6432 33.6157Z" fill="#902067"/>
<path d="M54.2479 30.4551C55.7445 29.8333 57.3392 30.2603 57.3392 30.2603C57.3392 30.2603 56.5115 31.695 55.0149 32.3169C53.5182 32.9387 51.9216 32.5117 51.9216 32.5117C51.9216 32.5117 52.7532 31.077 54.2479 30.4551Z" fill="#902067"/>
<path d="M47.4102 30.4551C48.9068 31.077 49.7345 32.5117 49.7345 32.5117C49.7345 32.5117 48.1379 32.9387 46.6413 32.3169C45.1446 31.695 44.3169 30.2603 44.3169 30.2603C44.3169 30.2603 45.9155 29.8333 47.4102 30.4551Z" fill="#902067"/>
<path d="M55.0169 33.6157C56.5135 34.2376 57.3412 35.6723 57.3412 35.6723C57.3412 35.6723 55.7446 36.0993 54.248 35.4775C52.7513 34.8556 51.9236 33.4209 51.9236 33.4209C51.9236 33.4209 53.5222 32.9938 55.0169 33.6157Z" fill="#902067"/>
<path d="M48.3262 36.3965C48.9461 34.8949 50.376 34.0644 50.376 34.0644C50.376 34.0644 50.8017 35.6664 50.1818 37.1679C49.562 38.6695 48.1321 39.5 48.1321 39.5C48.1321 39.5 47.7084 37.8961 48.3262 36.3965Z" fill="#902067"/>
<path d="M51.4784 28.7646C52.0982 27.263 53.5281 26.4326 53.5281 26.4326C53.5281 26.4326 53.9538 28.0345 53.334 29.5361C52.7141 31.0377 51.2842 31.8681 51.2842 31.8681C51.2842 31.8681 50.8585 30.2662 51.4784 28.7646Z" fill="#902067"/>
</svg>
